<svg width="17" height="12" viewBox="0 0 17 12" fill="none" xmlns="http://www.w3.org/2000/svg">
<rect x="0.5" width="16" height="12" fill="#006923"/>
<path fill-rule="evenodd" clip-rule="evenodd" d="M7.16982 3C7.15891 3 7.14254 3.00546 7.12163 3.01818C7.07254 3.05091 6.97617 3.15183 6.97253 3.2682C6.9698 3.33457 6.95708 3.33457 6.99981 3.3773C7.03072 3.42094 7.06345 3.4173 7.12527 3.38367C7.16164 3.35639 7.17346 3.34093 7.18618 3.29639C7.20073 3.22365 7.10709 3.33275 7.09527 3.24911C7.07436 3.17274 7.13436 3.14001 7.19073 3.06728C7.19255 3.03091 7.19255 3.00364 7.16982 3.00182V3ZM8.08171 3.00455C8.06352 3.00818 8.04261 3.03182 8.01261 3.08455C7.9917 3.14092 7.89987 3.22638 7.96715 3.40276C8.01988 3.51458 8.04261 3.69551 8.01806 3.89825C7.97988 3.95553 7.97261 3.97553 7.9226 4.0328C7.85351 4.10826 7.77714 4.08917 7.72077 4.06008C7.66622 4.02371 7.6244 4.00553 7.59985 3.89098C7.6044 3.70914 7.61531 3.4073 7.58167 3.34366C7.53257 3.24547 7.45075 3.28002 7.4162 3.31002C7.24983 3.46458 7.16709 3.72187 7.11618 3.92825C7.07072 4.07735 7.02072 4.03371 6.98617 3.97371C6.90162 3.8937 6.89525 3.27366 6.79343 3.37639C6.62978 3.8437 6.88707 4.35556 7.06618 4.30555C7.19346 4.3601 7.27528 4.11463 7.32801 3.84643C7.36438 3.77097 7.39165 3.76188 7.40984 3.80097C7.40529 4.15736 7.43711 4.23737 7.52803 4.34465C7.73168 4.50284 7.90078 4.36465 7.91442 4.35192L8.07352 4.19372C8.10989 4.15736 8.15535 4.15372 8.20535 4.18645C8.25445 4.23191 8.24808 4.30737 8.35082 4.35919C8.43991 4.39556 8.62629 4.36828 8.66902 4.29282C8.72812 4.19282 8.74175 4.15827 8.76903 4.12008C8.81085 4.06553 8.88267 4.09008 8.88267 4.10736C8.87631 4.13918 8.83449 4.171 8.86267 4.22555C8.91268 4.26191 8.9245 4.23827 8.95359 4.23009C9.05723 4.181 9.13542 3.95553 9.13542 3.95553C9.13997 3.87188 9.09269 3.87825 9.06269 3.89552C9.02178 3.92007 9.01996 3.92825 8.98086 3.9528C8.92904 3.96007 8.83085 3.99371 8.78267 3.91825C8.73266 3.82733 8.73266 3.70187 8.69448 3.60914C8.69448 3.60368 8.62811 3.4664 8.68902 3.45822C8.71903 3.46367 8.7863 3.48094 8.7963 3.42549C8.82903 3.37094 8.7263 3.21638 8.65629 3.14001C8.59629 3.07364 8.51265 3.06546 8.43173 3.13274C8.37445 3.18547 8.38355 3.24365 8.37173 3.29911C8.35809 3.36275 8.36082 3.44185 8.42628 3.5264C8.48264 3.63732 8.58538 3.78097 8.55083 3.9828C8.55083 3.9828 8.49174 4.07917 8.38718 4.06644C8.34172 4.05735 8.27081 4.03917 8.23263 3.75733C8.20535 3.5455 8.2399 3.2482 8.1508 3.1091C8.12989 3.05728 8.11262 3.00636 8.08352 3.00909L8.08171 3.00455ZM7.79259 3.02818C7.76532 3.03091 7.73532 3.06273 7.71077 3.12365C7.68986 3.17092 7.66349 3.41458 7.66804 3.41458C7.64986 3.48731 7.7435 3.51822 7.78623 3.42549C7.84987 3.25275 7.84987 3.18001 7.85351 3.1091C7.84442 3.05455 7.81987 3.02637 7.79259 3.02818ZM8.85904 3.04637C8.83176 3.05 8.80903 3.06637 8.80085 3.10819C8.78903 3.20456 8.79539 3.2582 8.81176 3.33912C8.82358 3.39367 8.90268 3.48276 8.94086 3.53549C9.12542 3.78369 9.30452 4.0328 9.47545 4.2901C9.50272 4.48284 9.5209 4.67012 9.53454 4.85741C9.56363 5.26653 9.57091 5.77566 9.54636 6.20751C9.62273 6.21024 9.74637 6.08296 9.7891 5.8984C9.81638 5.6402 9.78001 5.11652 9.77638 4.96378L9.76728 4.7474C9.9673 5.0747 10.16 5.42018 10.3491 5.79839C10.4192 5.76566 10.4037 5.37563 10.3637 5.32108C10.211 4.99378 10 4.67012 9.93366 4.54557C9.90911 4.50011 9.82638 4.37556 9.7291 4.231C9.71092 4.02371 9.69092 3.84915 9.67819 3.79642C9.64637 3.57822 9.76729 3.82097 9.75092 3.6946C9.71092 3.4764 9.59091 3.32912 9.44908 3.1291C9.40362 3.06546 9.40362 3.05091 9.33362 3.14547C9.2927 3.24093 9.2927 3.32093 9.30634 3.39548C9.28634 3.36821 9.26361 3.3373 9.23088 3.29729L8.99905 3.10092C8.96723 3.07819 8.9054 3.04364 8.85904 3.04637ZM12.0193 3.08001C12.0056 3.07819 11.992 3.08455 11.9738 3.1091C11.942 3.13637 11.9084 3.1882 11.9102 3.25456C11.9165 3.36821 11.9374 3.48549 11.9447 3.60004L11.9538 3.6455C11.9411 3.63096 11.9302 3.61823 11.9238 3.61277C11.6992 3.37639 12.0265 3.57277 11.8802 3.39185C11.7574 3.25547 11.7211 3.21365 11.6165 3.13183C11.562 3.0991 11.5311 3.03364 11.5138 3.14456C11.5065 3.24184 11.4992 3.35548 11.5047 3.43731C11.5047 3.48276 11.5529 3.56913 11.5938 3.61914C11.7429 3.8037 11.8956 3.99917 12.0484 4.20282C12.0811 4.6183 12.0893 4.99924 12.1211 5.41563C12.1175 5.59383 12.0629 5.83021 12.012 5.85203C12.012 5.85203 11.932 5.89749 11.8793 5.84748C11.8402 5.83203 11.6865 5.59019 11.6865 5.59019C11.6074 5.51746 11.5547 5.53837 11.4992 5.59019C11.3447 5.73929 11.2738 6.01932 11.1692 6.21206C11.1419 6.25479 11.0665 6.29206 10.9819 6.20842C10.7665 5.91385 10.891 5.49473 10.8655 5.60292C10.6746 5.8193 10.7583 6.17751 10.8019 6.25479C10.8655 6.38207 10.9165 6.46389 11.0383 6.52481C11.1519 6.60663 11.2383 6.55663 11.2874 6.49753C11.4001 6.38116 11.402 6.08205 11.4547 6.02295C11.491 5.91385 11.5847 5.93204 11.6302 5.98113C11.6756 6.04477 11.7265 6.08568 11.7911 6.12023C11.8965 6.21297 12.022 6.22933 12.1456 6.14478C12.2302 6.0975 12.2857 6.03568 12.3347 5.91385C12.3893 5.77202 12.362 5.02651 12.3502 4.61194L12.5866 4.95378C12.6193 5.31744 12.6348 5.67656 12.623 6.02022C12.6157 6.08841 12.8621 5.81657 12.8593 5.68747C12.8593 5.57565 12.8612 5.47291 12.8593 5.37836C12.9803 5.56928 13.0957 5.76293 13.2048 5.96022C13.273 5.92385 13.2503 5.53928 13.2075 5.48746C13.093 5.29472 12.9457 5.08743 12.8321 4.9256C12.8093 4.72286 12.7793 4.48375 12.7648 4.4101C12.7439 4.29555 12.722 4.12372 12.6893 3.98826C12.6802 3.93643 12.653 3.76733 12.662 3.75187C12.6748 3.71278 12.7257 3.75187 12.7502 3.70823C12.7866 3.66732 12.6211 3.23547 12.5366 3.11365C12.5066 3.0591 12.4511 3.07728 12.3838 3.16819C12.3202 3.22638 12.3438 3.36094 12.3675 3.48913C12.4293 3.81642 12.4857 4.14736 12.5293 4.48011C12.4475 4.35737 12.3475 4.21009 12.2493 4.06917L12.2366 4.00553C12.2366 3.99826 12.2238 3.73733 12.212 3.6755C12.2093 3.65005 12.2029 3.64278 12.2302 3.64641C12.2575 3.67005 12.2611 3.67096 12.2784 3.67914C12.3075 3.68278 12.3329 3.6355 12.3147 3.59095L12.0511 3.10546C12.042 3.09364 12.0293 3.08273 12.0147 3.08092L12.0193 3.08001ZM3.86412 3.0891C3.81412 3.08728 3.76138 3.11637 3.7823 3.17547C3.76957 3.20729 3.87685 3.31457 3.89594 3.37366C3.9114 3.41639 3.87776 3.55095 3.91412 3.56459C3.94594 3.57822 3.99049 3.47004 4.00686 3.37094C4.01595 3.31639 4.00958 3.1291 3.8823 3.09092C3.87594 3.0891 3.86957 3.0891 3.8623 3.08819L3.86412 3.0891ZM13.1557 3.0891C13.1439 3.09092 13.1303 3.10728 13.1103 3.15274C13.0603 3.23456 13.043 3.38003 13.063 3.50731C13.1812 4.31646 13.2721 5.10016 13.2903 5.81657C13.2794 5.88567 13.2757 5.92204 13.2448 6.0075C13.1739 6.09841 13.0957 6.21115 13.0221 6.2657C12.9493 6.32025 12.793 6.37298 12.7421 6.41298C12.5784 6.50571 12.5784 6.613 12.7093 6.61754C12.9348 6.59027 13.2021 6.57208 13.3857 6.29479C13.4348 6.21751 13.493 6.00659 13.4948 5.87658C13.513 5.12198 13.4857 4.38101 13.3721 3.83461C13.3648 3.78006 13.3412 3.65914 13.3503 3.64368C13.3639 3.6055 13.4376 3.64641 13.4639 3.60368C13.503 3.56368 13.273 3.27002 13.193 3.14456C13.1766 3.11364 13.1657 3.08728 13.153 3.09001L13.1557 3.0891ZM10.7892 3.10183C10.7801 3.10364 10.7674 3.11819 10.7419 3.15183C10.6783 3.3573 10.6564 3.52458 10.681 3.65369C10.8446 4.4992 11.0083 5.26744 10.9828 6.07205C11.0592 6.07205 11.1483 5.89658 11.1865 5.72202C11.2074 5.48109 11.1719 5.33472 11.1665 5.19471C11.1601 5.05288 11.0065 3.90734 10.9756 3.80097C10.9374 3.59914 11.1247 3.77369 11.1047 3.65732C11.0392 3.50822 10.8774 3.29366 10.8283 3.16365C10.8101 3.1291 10.8065 3.09728 10.7919 3.10001L10.7892 3.10183ZM5.03057 3.11819C5.01239 3.12183 4.99148 3.13819 4.98511 3.16365C4.98057 3.18183 4.99238 3.21183 4.97602 3.22093C4.96693 3.23002 4.93238 3.22365 4.9342 3.17547C4.9342 3.1591 4.92238 3.14274 4.91602 3.13274C4.90874 3.1291 4.9042 3.12819 4.89147 3.12819C4.87601 3.12819 4.87601 3.13274 4.86783 3.14637C4.86419 3.1591 4.85874 3.17183 4.85874 3.18638C4.85692 3.20456 4.84965 3.20911 4.83783 3.21183C4.82328 3.21183 4.82601 3.21365 4.8151 3.20547C4.80601 3.19911 4.79873 3.19638 4.79873 3.18365C4.79873 3.17001 4.7951 3.14728 4.79146 3.14001C4.7851 3.13092 4.7751 3.12728 4.76419 3.12456C4.70418 3.12456 4.70055 3.19547 4.70327 3.22093C4.69873 3.22638 4.69691 3.34821 4.77873 3.38276C4.88783 3.43549 5.09512 3.41276 5.08785 3.23547C5.08785 3.22002 5.0833 3.16729 5.08148 3.15365C5.07057 3.12637 5.04966 3.11728 5.02966 3.12001L5.03057 3.11819ZM6.50886 3.12001C6.47068 3.12183 6.43613 3.13274 6.40885 3.14728C6.33612 3.21729 6.31794 3.32912 6.37612 3.39912C6.43067 3.4264 6.48795 3.48094 6.45068 3.51277C6.29248 3.68096 5.88063 3.96371 5.85972 4.01553V4.02098H5.86336V4.0228C5.88427 4.03644 6.14247 4.03644 6.17065 4.0228H6.17247C6.26157 3.98916 6.6816 3.50913 6.6816 3.50913C6.65978 3.49095 6.63978 3.4764 6.61796 3.45731C6.59432 3.43731 6.59705 3.4173 6.61796 3.3973C6.7216 3.3373 6.68887 3.20365 6.63432 3.14274C6.58887 3.12274 6.54705 3.11546 6.50886 3.11819V3.12001ZM10.3728 3.12001C10.3619 3.12274 10.3482 3.13819 10.3273 3.18365C10.2773 3.26547 10.2437 3.40639 10.2482 3.53822C10.3555 4.28373 10.3882 4.9356 10.4592 5.68111C10.4646 5.75384 10.4537 5.85749 10.4064 5.89931C10.2282 6.08477 9.97275 6.31206 9.69455 6.41753C9.66455 6.45117 9.7691 6.5939 9.90366 6.5939C10.1291 6.56663 10.3273 6.44116 10.5128 6.1075C10.561 6.03023 10.6474 5.86385 10.6492 5.73475C10.6674 4.97833 10.6128 4.38919 10.4982 3.8437C10.4919 3.78915 10.4964 3.72551 10.5055 3.71096C10.5201 3.69278 10.5692 3.71096 10.5964 3.66823C10.6346 3.62823 10.4928 3.30184 10.4128 3.17729C10.3964 3.14547 10.3873 3.1191 10.3728 3.12001ZM4.38689 3.14456C4.35597 3.14819 4.32688 3.17183 4.31233 3.2082C4.30779 3.32639 4.30688 3.44458 4.32143 3.5555C4.37598 3.74915 4.39143 3.91916 4.4178 4.11645C4.42689 4.38192 4.26506 4.231 4.27233 4.10008C4.3087 3.92916 4.29961 3.66096 4.26688 3.59277C4.2396 3.52458 4.21051 3.50822 4.14687 3.52004C4.09686 3.5164 3.96685 3.65641 3.93049 3.89279C3.93049 3.89279 3.89958 4.0128 3.88685 4.12008C3.86866 4.241 3.78866 4.32737 3.73229 4.10372C3.68411 3.94007 3.65501 3.54004 3.5741 3.63277C3.55046 3.94553 3.52318 4.49647 3.78866 4.55284C4.1105 4.58375 3.93231 4.00917 4.04868 3.90461C4.07141 3.85461 4.11232 3.8537 4.11505 3.91825V4.40647C4.11141 4.56466 4.21505 4.61194 4.29688 4.64467C4.38143 4.6383 4.43689 4.64103 4.46962 4.72286L4.51053 5.56837C4.51053 5.56837 4.70509 5.62292 4.71418 5.09288C4.72327 4.78104 4.65054 4.52011 4.69327 4.4592C4.69509 4.3992 4.77146 4.39556 4.82419 4.42556C4.90874 4.48466 4.94602 4.55739 5.07694 4.5283C5.27695 4.47375 5.39514 4.37738 5.39787 4.22464C5.38878 4.07917 5.37059 3.93371 5.30695 3.78824C5.31605 3.76278 5.27059 3.6946 5.27968 3.66823C5.31423 3.72278 5.36878 3.71914 5.37969 3.66823C5.34696 3.5564 5.29423 3.45003 5.20876 3.40458C5.13876 3.34093 5.03602 3.35457 4.99784 3.48367C4.97966 3.63277 5.05239 3.80915 5.16149 3.95371C5.18331 4.01008 5.21604 4.10372 5.20149 4.18827C5.14421 4.221 5.08694 4.20645 5.03784 4.15645C5.03784 4.15645 4.88056 4.03826 4.88056 4.01098C4.92329 3.74278 4.88965 3.71096 4.86692 3.63823C4.85056 3.53459 4.80146 3.50186 4.76237 3.43094C4.72236 3.38821 4.66872 3.38821 4.64418 3.43094C4.57326 3.55186 4.60599 3.81279 4.65691 3.92825C4.69327 4.03553 4.74964 4.10281 4.72327 4.10281C4.70145 4.1619 4.656 4.14827 4.62327 4.07826C4.57781 3.9328 4.5669 3.71824 4.5669 3.62096C4.55326 3.50095 4.53781 3.24365 4.4578 3.1782C4.43689 3.1491 4.41234 3.1391 4.38779 3.14183L4.38689 3.14456ZM5.51606 3.14456C5.5006 3.14819 5.48242 3.15728 5.46151 3.16274C5.39332 3.18365 5.32968 3.24275 5.34968 3.3573C5.43151 3.84824 5.48333 4.22373 5.56425 4.71467C5.57606 4.77286 5.52788 4.84832 5.46606 4.84196C5.36059 4.76922 5.33423 4.62376 5.15422 4.63103C5.0233 4.63103 4.87419 4.77468 4.85601 4.91105C4.83419 5.02015 4.82692 5.13834 4.85601 5.23289C4.94693 5.34199 5.05784 5.33108 5.15422 5.30563C5.23331 5.27381 5.29968 5.19653 5.32696 5.21471C5.34514 5.24471 5.32514 5.50019 4.9542 5.69656C4.72509 5.80021 4.54326 5.82385 4.44507 5.63838C4.38507 5.52201 4.45053 5.07834 4.30142 5.18016C3.85957 6.31843 5.33514 6.47662 5.4997 5.22744C5.51061 5.19107 5.54243 5.15652 5.56606 5.16562C5.57516 5.17016 5.58425 5.1838 5.58788 5.20926C5.55334 6.34025 4.44598 6.41844 4.25869 6.06205C4.21142 5.9784 4.19778 5.79112 4.19323 5.6802C4.18414 5.61201 4.16778 5.57292 4.14778 5.55746C4.10232 5.52382 4.04231 5.61201 4.02959 5.76384C4.0114 5.88658 4.01595 5.92022 4.01595 6.03841C4.07595 6.93211 5.5006 6.54754 5.73244 5.81112C5.84699 5.42927 5.72971 5.14107 5.76881 5.10561L5.77153 5.10379H5.77426L5.77881 5.10197C5.92064 5.25471 6.11883 5.12016 6.16247 5.06834C6.18066 5.04106 6.22793 5.02288 6.26066 5.05924C6.36976 5.13743 6.56432 5.10016 6.60432 4.95924C6.62796 4.82286 6.64796 4.68285 6.65251 4.53648C6.57978 4.55921 6.52159 4.57557 6.49795 4.60012C6.4925 4.60648 6.48886 4.61376 6.48704 4.62103L6.46886 4.74195C6.46886 4.74649 6.46704 4.74922 6.46522 4.75104C6.46249 4.7574 6.45613 4.76195 6.45249 4.76468C6.42704 4.77831 6.38249 4.77104 6.37976 4.73377C6.34612 4.57921 6.2052 4.55921 6.11974 4.80013C6.06246 4.84559 5.95609 4.85468 5.947 4.78559C5.96064 4.62376 5.89518 4.60194 5.76517 4.67831L5.63971 3.73278C5.69426 3.73005 5.74335 3.76915 5.79426 3.70733C5.73971 3.54004 5.62607 3.20002 5.56152 3.16729H5.5597L5.55061 3.15819C5.55061 3.15638 5.54788 3.15547 5.54606 3.15456L5.54243 3.1491C5.53879 3.1491 5.53515 3.14728 5.53333 3.14637C5.52697 3.14456 5.52242 3.14456 5.51606 3.14456ZM9.91821 3.14819C9.86184 3.14637 9.80001 3.18183 9.82365 3.25275C9.80911 3.29184 9.94457 3.42276 9.96639 3.49367C10.0055 3.60277 9.93639 3.70914 9.9773 3.7246C10.0155 3.74096 10.0682 3.61095 10.0864 3.49004C10.11 3.39185 10.0409 3.19183 9.94093 3.15092L9.91821 3.1491V3.14819ZM6.48795 3.26729C6.51341 3.26547 6.54432 3.28911 6.56068 3.32184C6.57614 3.35821 6.56796 3.39185 6.5425 3.39821C6.51523 3.40458 6.48068 3.38185 6.46431 3.34548C6.44795 3.30911 6.45522 3.27548 6.4825 3.26911H6.48795V3.26729ZM12.8493 3.43276C12.7975 3.43094 12.7402 3.46913 12.7639 3.5464C12.7511 3.58823 12.873 3.73005 12.8939 3.80824C12.9121 3.86279 12.8666 4.04099 12.903 4.05735C12.9375 4.07553 12.9848 3.93371 13.003 3.80279C13.0139 3.73005 12.9612 3.48004 12.8712 3.43549C12.8648 3.43367 12.8575 3.43185 12.8502 3.43185L12.8493 3.43276ZM9.33089 3.52004C9.33725 3.54095 9.3418 3.56186 9.34453 3.58368C9.35544 3.62914 9.36453 3.6746 9.37362 3.72187C9.33362 3.6655 9.30089 3.62005 9.28543 3.60368C9.19452 3.49458 9.28725 3.53277 9.33089 3.52004ZM10.1428 3.91825C10.1228 3.92189 10.1037 3.93916 10.0973 3.96644C10.0919 3.9828 10.1046 4.01189 10.0882 4.02098C10.0791 4.03008 10.0428 4.02462 10.0455 3.97553C10.0455 3.95916 10.0337 3.94189 10.0273 3.9328C10.02 3.92825 10.0155 3.92643 10.0028 3.92643C9.9873 3.92643 9.9873 3.93098 9.97912 3.94462C9.97548 3.95734 9.97003 3.97007 9.97003 3.98553C9.97003 4.00371 9.96275 4.00917 9.95003 4.0128C9.93548 4.0128 9.93821 4.0128 9.92639 4.00644C9.91911 3.99735 9.91093 3.99553 9.91093 3.9828C9.91093 3.96916 9.90821 3.94825 9.90366 3.93916C9.8973 3.93007 9.8882 3.92734 9.87638 3.92371C9.81729 3.92371 9.81274 3.9928 9.81638 4.01826C9.81274 4.02371 9.81002 4.14736 9.89184 4.18191C10.0028 4.23373 10.21 4.20918 10.201 4.0328C10.201 4.01735 10.1964 3.96462 10.1955 3.95098C10.1837 3.92371 10.1628 3.91461 10.1437 3.91734L10.1428 3.91825ZM6.44249 3.95462C6.42976 3.95462 6.41158 3.95825 6.39067 3.97098C6.29339 4.02371 6.25612 4.18009 6.31794 4.271C6.37249 4.35283 6.4634 4.32283 6.47522 4.32283C6.57068 4.33555 6.62705 4.14463 6.62705 4.14463C6.62705 4.14463 6.62978 4.09008 6.51795 4.19191C6.46886 4.201 6.4634 4.18282 6.45068 4.15554C6.43977 4.10736 6.44158 4.05553 6.46431 4.00735C6.47522 3.97735 6.46431 3.95825 6.44249 3.95643V3.95462ZM11.6729 3.97916C11.6183 3.97644 11.5611 4.01189 11.5456 4.08554C11.5456 4.12917 11.5656 4.15281 11.562 4.19282C11.5574 4.21554 11.5347 4.22918 11.4783 4.20373C11.4874 4.19463 11.442 4.13281 11.442 4.13281C11.3992 4.10554 11.3419 4.13281 11.3038 4.15827C11.2829 4.19645 11.2674 4.261 11.291 4.32646C11.3529 4.44193 11.5665 4.6383 11.6683 4.64012C11.6702 4.53648 11.6802 4.39829 11.6865 4.31282C11.6883 4.2801 11.6956 4.24464 11.7274 4.23646C11.7583 4.22736 11.812 4.26737 11.812 4.23373C11.8065 4.16827 11.7938 4.07008 11.7574 4.02462C11.7374 3.99735 11.7056 3.98098 11.6738 3.97916H11.6729ZM7.34256 4.3401L7.33983 4.34283C7.33983 4.34283 7.33801 4.34283 7.3371 4.34465C7.32619 4.35374 7.31347 4.37192 7.28528 4.3901C7.2371 4.44465 7.22891 4.48375 7.23073 4.59285C7.23437 4.60466 7.32165 4.85014 7.39711 5.02197C7.44802 5.20107 7.49439 5.40654 7.46075 5.60019C7.34256 5.85658 7.10618 6.08659 6.87616 6.21206C6.75797 6.24842 6.65796 6.23569 6.63069 6.21024C6.56341 6.16478 6.5625 6.08296 6.56705 6.07023V6.0675C6.75979 5.93295 6.98071 5.82385 7.15345 5.46109C7.20437 5.32199 7.22073 5.23835 7.16982 5.0247C7.14982 4.94287 7.12436 4.87923 7.06981 4.82104H7.07163C7.10436 4.80559 7.18982 4.86832 7.20346 4.83014C7.18255 4.72649 7.11254 4.58921 7.03526 4.51829C6.96617 4.45465 6.8898 4.44829 6.82798 4.50557C6.75706 4.54557 6.74251 4.6874 6.77615 4.81104C6.81434 4.90378 6.91707 4.92014 6.98981 5.10834C6.99162 5.12107 7.01435 5.24926 6.97799 5.30199C6.94708 5.39472 6.56432 5.69656 6.53705 5.71475L6.53432 5.71657L6.5325 5.71838H6.53068H6.52886V5.71566C6.52704 5.70838 6.52886 5.68838 6.52886 5.65838C6.52613 5.60201 6.54977 5.47382 6.54705 5.45109V5.44927C6.41976 5.5311 6.37703 5.78112 6.3543 5.85567C6.03337 6.07659 5.66971 6.24115 5.45969 6.4648C5.35059 6.63754 6.21248 6.27024 6.31248 6.22569L6.31521 6.22842C6.33521 6.24933 6.33612 6.32207 6.3934 6.38843C6.48431 6.50935 6.67342 6.5839 6.85889 6.53754C7.16982 6.42571 7.34983 6.21388 7.53166 5.9784C7.55712 5.94204 7.59803 5.91113 7.63622 5.94022C7.76077 6.22024 8.12262 6.42025 8.58902 6.44026C8.69812 6.30934 8.64629 6.24479 8.60265 6.21751C8.58902 6.20842 8.37082 6.12296 8.33627 6.03841C8.31536 5.96022 8.36718 5.89021 8.47083 5.83839C8.77085 5.80203 9.06541 5.76111 9.35089 5.66929C9.35362 5.57292 9.40999 5.43018 9.44817 5.36745C9.47545 5.32472 9.4909 5.32017 9.49726 5.31472V5.3129H9.49908V5.31017V5.30108L9.44999 5.27199L8.49265 5.26835C8.48083 5.2638 8.47264 5.25926 8.46719 5.25471L8.46537 5.25199C8.46537 5.25199 8.46355 5.25199 8.46355 5.25017C8.46355 5.24835 8.46173 5.24835 8.46173 5.24835V5.24744V5.24562V5.2438L8.46355 5.24108C8.4681 5.23562 8.47992 5.22926 8.49355 5.22289C8.72266 5.19289 9.12815 5.12652 9.15542 4.73649C9.15088 4.53284 9.06814 4.4001 8.81903 4.36374C8.63538 4.37738 8.50446 4.55466 8.52537 4.74922C8.51628 4.80104 8.54356 4.90378 8.48901 4.9156C8.13807 4.94833 7.75441 5.16834 7.74168 5.32654H7.73986H7.73804H7.73622C7.73622 5.32836 7.7335 5.32835 7.7335 5.32835H7.72986H7.72804H7.72441C7.70168 5.32108 7.67258 5.2829 7.67713 5.23108C7.66349 4.95833 7.57439 4.64921 7.4362 4.41283C7.3862 4.36283 7.36347 4.34283 7.35074 4.3401H7.34801H7.34529H7.34256ZM8.25899 4.48375C8.24081 4.48738 8.2199 4.50375 8.21353 4.53102C8.20899 4.54921 8.22262 4.5783 8.20626 4.58739C8.19717 4.59648 8.1608 4.59103 8.16262 4.54193C8.16262 4.52648 8.1508 4.5092 8.14444 4.4992C8.13716 4.49466 8.13262 4.49375 8.1208 4.49375C8.10534 4.49375 8.10443 4.49738 8.09625 4.51011C8.09171 4.52284 8.08716 4.53739 8.08716 4.55102C8.08534 4.56921 8.07807 4.57466 8.06625 4.57648C8.0517 4.57648 8.05534 4.57921 8.04352 4.57194C8.03625 4.56466 8.02716 4.56103 8.02716 4.5483C8.02716 4.53466 8.02443 4.51193 8.02079 4.50284C8.01443 4.49647 8.00443 4.49375 7.99352 4.49011C7.9326 4.49011 7.92988 4.5583 7.9326 4.58466C7.92806 4.58921 7.92533 4.71195 8.00715 4.74649C8.11625 4.79922 8.37991 4.76831 8.31627 4.5983C8.31627 4.58284 8.31172 4.53011 8.31081 4.51648C8.29899 4.4892 8.27808 4.48011 8.25808 4.48284L8.25899 4.48375ZM11.9547 4.63558H11.9456C11.9456 4.63558 11.4347 4.99924 11.4229 5.01197C11.3719 5.05743 11.3974 5.21471 11.4229 5.19653C11.4592 5.21016 11.9729 4.86196 11.9629 4.82104C11.9856 4.82286 11.9965 4.64194 11.9538 4.63467L11.9547 4.63558ZM8.74175 4.69013C8.76176 4.6874 8.78903 4.69467 8.81449 4.70831C8.85358 4.73195 8.87813 4.76468 8.87358 4.79013V4.79377C8.87176 4.79377 8.87176 4.79377 8.87176 4.79559V4.79741C8.87176 4.79741 8.86995 4.79741 8.86995 4.79922C8.86995 4.80104 8.86722 4.80286 8.8654 4.80468C8.84722 4.82286 8.8054 4.81923 8.76539 4.79559C8.72721 4.77468 8.70448 4.74104 8.7063 4.7174V4.71467L8.71084 4.70558C8.71084 4.70558 8.71084 4.70376 8.71266 4.70285L8.71721 4.6974C8.72357 4.69285 8.73175 4.68831 8.74175 4.68831V4.69013ZM4.27051 4.78104C4.00686 4.7865 3.61865 5.12834 3.60865 5.31745L4.44507 4.91742C4.39961 4.84832 4.44234 4.7865 4.27051 4.78104ZM5.12785 4.89923C5.15331 4.90105 5.18058 4.91378 5.19513 4.95015C5.20786 4.98378 5.19513 5.01833 5.17967 5.03561V5.03833C5.16694 5.05288 5.12876 5.04743 5.10057 5.04743C5.06694 5.04561 5.05057 5.04015 5.03057 5.01288C5.01966 4.98106 5.04875 4.95105 5.06239 4.92923L5.06875 4.92014C5.07785 4.91105 5.09603 4.90378 5.11421 4.90196L5.12603 4.90014L5.12785 4.89923ZM11.8556 5.0056C11.8074 5.01106 11.7629 5.05561 11.7829 5.12652C11.7702 5.16834 11.8465 5.31472 11.8674 5.392C11.8856 5.44655 11.8438 5.60383 11.8811 5.61929C11.9156 5.63747 12.0056 5.52837 12.0029 5.38836C12.012 5.31563 11.9774 5.05197 11.8874 5.00833C11.8765 5.0056 11.8665 5.00469 11.8556 5.0056ZM6.14247 5.2638C6.10065 5.26653 6.06337 5.28835 6.08065 5.34745C6.07792 5.38927 6.19884 5.44109 6.2052 5.53837C6.22157 5.58019 6.17793 5.71111 6.21429 5.72202C6.24702 5.73566 6.29248 5.6311 6.30976 5.53655C6.31885 5.48382 6.26793 5.30017 6.18247 5.26653C6.16884 5.2629 6.1552 5.26199 6.14156 5.2629L6.14247 5.2638ZM7.85169 5.49655H7.8626C7.96988 5.52564 8.12625 5.52928 8.26263 5.54201C8.37445 5.5511 8.429 5.63656 8.32627 5.67384C8.22262 5.70838 8.12353 5.73748 8.12353 5.88476C8.13626 5.95749 8.13262 5.99568 8.12171 6.01204C8.12171 6.01477 8.11807 6.0175 8.11807 6.0175C8.11807 6.0175 8.11807 6.01932 8.11625 6.01932V6.02113H8.11353L8.10716 6.02386H8.10262C8.07807 6.02841 8.04261 6.00568 8.01625 5.99113C7.95261 5.94567 7.77532 5.83657 7.74986 5.60019C7.74623 5.54564 7.78623 5.50019 7.84987 5.49564L7.85169 5.49655ZM3.67501 5.67838C3.66865 5.67838 3.65683 5.69838 3.63865 5.72111C3.48045 5.97113 3.46591 6.34479 3.55319 6.45753C3.59864 6.50935 3.67501 6.53299 3.73138 6.51663C3.83139 6.47389 3.87412 6.27297 3.84957 6.20024C3.81775 6.14842 3.79139 6.14023 3.75866 6.18387C3.68865 6.32479 3.65865 6.22751 3.6541 6.14751C3.64319 5.99931 3.65774 5.86112 3.67411 5.75202C3.6832 5.69747 3.6832 5.67656 3.67411 5.67656L3.67501 5.67838ZM9.03632 6.0075C9.0245 6.0075 9.01268 6.00931 8.99996 6.01659C8.99723 6.01659 8.88722 6.08932 8.85176 6.14205C8.82994 6.15842 8.83358 6.17205 8.83903 6.20115C8.8554 6.24024 8.88449 6.22842 8.91904 6.21024C8.9645 6.20297 8.98541 6.23297 8.98268 6.28661C8.96177 6.35479 8.99177 6.37934 8.99177 6.38389C8.99177 6.38752 9.0345 6.4248 9.08542 6.39571C9.19179 6.35479 9.25816 6.31388 9.40817 6.28206C9.44726 6.28206 9.44453 6.1766 9.38271 6.17296C9.30089 6.1766 9.22815 6.18205 9.14633 6.2457C9.09633 6.25661 9.08814 6.22569 9.07632 6.19842C9.0636 6.13114 9.10542 6.08387 9.09633 6.03295C9.09814 6.03568 9.07087 6.01113 9.03541 6.00931L9.03632 6.0075ZM12.4693 6.13478L12.3966 6.14205C12.3638 6.14842 12.3529 6.16296 12.3466 6.20297C12.3493 6.26206 12.3857 6.25933 12.4238 6.28297C12.4457 6.31025 12.4602 6.3357 12.422 6.38298C12.3857 6.4148 12.3611 6.43298 12.3247 6.4648C12.3093 6.4939 12.2975 6.53754 12.3502 6.55208C12.4457 6.57936 12.6666 6.43571 12.6666 6.43389C12.703 6.40662 12.6902 6.35479 12.6875 6.35479C12.6657 6.33116 12.6184 6.3457 12.5875 6.34116C12.572 6.34116 12.5239 6.33388 12.5457 6.29024C12.5657 6.26297 12.5729 6.24751 12.5866 6.21388C12.6002 6.18115 12.5866 6.15933 12.5339 6.14114C12.5066 6.13569 12.4884 6.13387 12.4675 6.13478H12.4693Z" fill="white"/>
<path d="M12.4396 7.90932H12.3061H11.5048V7.72847C11.5048 7.62853 11.445 7.54761 11.3713 7.54761C11.2975 7.54761 11.2377 7.62848 11.2377 7.72847V7.90932H4.15967C4.42674 8.27097 4.96093 8.45188 5.3616 8.45188C5.64894 8.45188 9.23317 8.45188 11.2377 8.45188V8.81353C11.2377 8.91347 11.2975 8.99439 11.3713 8.99439H12.4396C12.6606 8.99439 12.8403 8.75101 12.8403 8.45183C12.8403 8.15264 12.6606 7.90932 12.4396 7.90932ZM12.4396 8.63268H11.5048V8.45183C12.1484 8.45183 12.5732 8.45183 12.5732 8.45183L12.5492 8.35449C12.5631 8.38297 12.5732 8.41513 12.5732 8.45183C12.5732 8.55166 12.5133 8.63268 12.4396 8.63268Z" fill="white"/>
</svg>
